# xmcd CD database file
#
# Track frame offsets:
#	150
#	17655
#	35825
#	55705
#	71225
#	85868
#	105398
#	123703
#	140225
#	160428
#	178943
#
# Disc length: 2585 seconds
#
# Revision: 0
# Processed by: cddbd v1.5PL3 Copyright (c) Steve Scherf et al.
# Submitted via: CDex 1.60beta1
#
DISCID=a20a170b
DTITLE=Anita Kruse - All We Have Is Now
DYEAR=1993
DGENRE=New Age
TTITLE0=Keep You Pieces In Your Own Puzzle
TTITLE1=All We Have Is Now
TTITLE2=The Seducer
TTITLE3=Death When Our Eyes Meet
TTITLE4=He Could See
TTITLE5=There You Go Again
TTITLE6=Spinning A Wheel Of Gold
TTITLE7=What You See Is What You Get
TTITLE8=Simply Silent
TTITLE9=Soulmates
TTITLE10=Tulip Time
EXTD=YEAR: 1993
EXTT0=
EXTT1=
EXTT2=
EXTT3=
EXTT4=
EXTT5=
EXTT6=
EXTT7=
EXTT8=
EXTT9=
EXTT10=
PLAYORDER=
